<svg width="212" height="220" viewBox="0 0 212 220" fill="none" xmlns="http://www.w3.org/2000/svg">
<g clip-path="url(#clip0_2115_12)">
<path d="M169.39 35.7188L169.557 175.613H79.8933L79.9546 35.7188H169.39Z" fill="black"/>
<path d="M160.354 25H88.8831C83.9938 25 80.0167 29.1374 80.0167 34.2227L79.9554 35.7195H169.39L169.223 34.2227C169.222 29.1374 165.244 25 160.354 25Z" fill="#EAD8CA"/>
<path d="M80.1968 175.539V176.048C80.1968 182.619 84.1675 187.965 89.0495 187.965H160.399C165.28 187.965 169.252 182.619 169.252 176.048V175.539H80.1968Z" fill="#EAD8CA"/>
<path d="M124.672 32.4076C123.603 32.4076 122.733 31.4926 122.733 30.3581C122.733 29.2235 123.603 28.3086 124.672 28.3086C125.742 28.3086 126.611 29.2235 126.611 30.3581C126.611 31.4926 125.741 32.4076 124.672 32.4076ZM124.672 28.573C123.748 28.573 122.997 29.3736 122.997 30.3581C122.997 31.3426 123.748 32.1431 124.672 32.1431C125.596 32.1431 126.347 31.3426 126.347 30.3581C126.347 29.3736 125.595 28.573 124.672 28.573Z" fill="#231F20"/>
<path d="M138.939 112.73H49.9879V163.339H138.939V112.73Z" fill="white"/>
<path d="M53.3471 114.719H52.0053V116.123H53.3471V114.719Z" fill="#231F20"/>
<path d="M57.5957 114.719H54.5847V116.123H57.5957V114.719Z" fill="#F2ECEB"/>
<path d="M63.5718 114.719H59.1377V116.123H63.5718V114.719Z" fill="#231F20"/>
<path d="M87.9645 114.719H83.1684V116.123H87.9645V114.719Z" fill="#231F20"/>
<path d="M77.0698 114.719H68.3697V116.123H77.0698V114.719Z" fill="#231F20"/>
<path d="M67.3944 114.719H64.3424V116.123H67.3944V114.719Z" fill="#231F20"/>
<path d="M81.7078 114.719H78.6557V116.123H81.7078V114.719Z" fill="#231F20"/>
<path d="M113.47 114.719H111.424V116.123H113.47V114.719Z" fill="#F2ECEB"/>
<path d="M128.906 114.719H114.799V116.123H128.906V114.719Z" fill="#F2ECEB"/>
<path d="M110.083 114.719H102.277V116.123H110.083V114.719Z" fill="#231F20"/>
<path d="M99.7961 114.719H89.7368V116.123H99.7961V114.719Z" fill="#F2ECEB"/>
<path d="M53.3471 118.332H52.0053V119.737H53.3471V118.332Z" fill="#231F20"/>
<path d="M62.3927 118.332H54.5847V119.737H62.3927V118.332Z" fill="#D1C2BA"/>
<path d="M87.9645 118.332H70.8468V119.737H87.9645V118.332Z" fill="#D1C2BA"/>
<path d="M69.2235 118.332H64.3424V119.737H69.2235V118.332Z" fill="#D1C2BA"/>
<path d="M119.677 118.332H89.7368V119.737H119.677V118.332Z" fill="#F2ECEB"/>
<path d="M53.3471 121.98H52.0053V123.385H53.3471V121.98Z" fill="#231F20"/>
<path d="M58.4887 121.98H54.5847V123.385H58.4887V121.98Z" fill="#F2ECEB"/>
<path d="M84.7936 121.98H74.7508V123.385H84.7936V121.98Z" fill="#F2ECEB"/>
<path d="M73.451 121.98H70.8468V123.385H73.451V121.98Z" fill="#F2ECEB"/>
<path d="M69.2235 121.98H59.8726V123.385H69.2235V121.98Z" fill="#F2ECEB"/>
<path d="M107.481 121.98H97.276V123.385H107.481V121.98Z" fill="#7298E4"/>
<path d="M90.2012 121.98H86.0139V123.385H90.2012V121.98Z" fill="#7298E4"/>
<path d="M95.8775 121.98H91.6902V123.385H95.8775V121.98Z" fill="#7298E4"/>
<path d="M53.3471 129.609H52.0053V131.014H53.3471V129.609Z" fill="#231F20"/>
<path d="M62.3927 129.609H54.5847V131.014H62.3927V129.609Z" fill="#F2ECEB"/>
<path d="M87.9636 129.609H80.1556V131.014H87.9636V129.609Z" fill="#7298E4"/>
<path d="M78.6547 129.609H70.8468V131.014H78.6547V129.609Z" fill="#7298E4"/>
<path d="M69.2235 129.609H64.3424V131.014H69.2235V129.609Z" fill="#7298E4"/>
<path d="M135.498 129.609H130.617V131.014H135.498V129.609Z" fill="#D1C2BA"/>
<path d="M128.906 129.609H115.959V131.014H128.906V129.609Z" fill="#D1C2BA"/>
<path d="M113.47 129.609H100.523V131.014H113.47V129.609Z" fill="#D1C2BA"/>
<path d="M97.8309 129.609H89.7368V131.014H97.8309V129.609Z" fill="#F2ECEB"/>
<path d="M60.4997 150.871H59.1578V152.276H60.4997V150.871Z" fill="#231F20"/>
<path d="M69.5452 150.871H61.7373V152.276H69.5452V150.871Z" fill="#F2ECEB"/>
<path d="M95.117 150.871H87.3091V152.276H95.117V150.871Z" fill="#7298E4"/>
<path d="M85.8073 150.871H77.9994V152.276H85.8073V150.871Z" fill="#7298E4"/>
<path d="M76.376 150.871H71.4949V152.276H76.376V150.871Z" fill="#7298E4"/>
<path d="M142.651 150.871H137.77V152.276H142.651V150.871Z" fill="#F2ECEB"/>
<path d="M136.06 150.871H123.112V152.276H136.06V150.871Z" fill="#F2ECEB"/>
<path d="M120.624 150.871H107.676V152.276H120.624V150.871Z" fill="#F2ECEB"/>
<path d="M104.983 150.871H96.8894V152.276H104.983V150.871Z" fill="#F2ECEB"/>
<path d="M53.3471 133.223H52.0053V134.627H53.3471V133.223Z" fill="#231F20"/>
<path d="M56.5372 133.223H54.5847V134.627H56.5372V133.223Z" fill="#7298E4"/>
<path d="M84.5486 133.223H76.7407V134.627H84.5486V133.223Z" fill="#D1C2BA"/>
<path d="M75.4839 133.223H64.4648V134.627H75.4839V133.223Z" fill="#F2ECEB"/>
<path d="M62.8278 133.223H57.9467V134.627H62.8278V133.223Z" fill="#7298E4"/>
<path d="M135.498 133.223H126.711V134.627H135.498V133.223Z" fill="#D1C2BA"/>
<path d="M125.45 133.223H120.856V134.627H125.45V133.223Z" fill="#F2ECEB"/>
<path d="M119.433 133.223H96.9908V134.627H119.433V133.223Z" fill="#D1C2BA"/>
<path d="M95.4863 133.223H86.0139V134.627H95.4863V133.223Z" fill="#D1C2BA"/>
<path d="M53.3471 136.875H52.0053V138.279H53.3471V136.875Z" fill="#231F20"/>
<path d="M62.3927 136.875H54.5847V138.279H62.3927V136.875Z" fill="#F2ECEB"/>
<path d="M85.7698 136.875H79.2242V138.279H85.7698V136.875Z" fill="#231F20"/>
<path d="M72.6786 136.875H68.3816V138.279H72.6786V136.875Z" fill="#F2ECEB"/>
<path d="M78.0908 136.875H73.7938V138.279H78.0908V136.875Z" fill="#231F20"/>
<path d="M66.6412 136.875H64.3424V138.279H66.6412V136.875Z" fill="#F2ECEB"/>
<path d="M135.498 136.875H126.914V138.279H135.498V136.875Z" fill="#231F20"/>
<path d="M125.613 136.875H114.747V138.279H125.613V136.875Z" fill="#F2ECEB"/>
<path d="M108.213 136.875H104.707V138.279H108.213V136.875Z" fill="#F2ECEB"/>
<path d="M113.294 136.875H109.789V138.279H113.294V136.875Z" fill="#F2ECEB"/>
<path d="M103.089 136.875H87.193V138.279H103.089V136.875Z" fill="#231F20"/>
<path d="M53.3471 140.488H52.0053V141.893H53.3471V140.488Z" fill="#231F20"/>
<path d="M62.3927 140.488H54.5847V141.893H62.3927V140.488Z" fill="#F2ECEB"/>
<path d="M88.9818 140.488H70.8468V141.893H88.9818V140.488Z" fill="#F2ECEB"/>
<path d="M69.2235 140.488H64.3424V141.893H69.2235V140.488Z" fill="#F2ECEB"/>
<path d="M95.0823 140.488H90.2012V141.893H95.0823V140.488Z" fill="#F2ECEB"/>
<path d="M60.6413 147.871H59.2995V149.276H60.6413V147.871Z" fill="#231F20"/>
<path d="M69.6869 147.871H61.879V149.276H69.6869V147.871Z" fill="#F2ECEB"/>
<path d="M91.3547 147.871H87.4508V149.276H91.3547V147.871Z" fill="#7298E4"/>
<path d="M85.949 147.871H78.1411V149.276H85.949V147.871Z" fill="#F2ECEB"/>
<path d="M76.5177 147.871H71.6366V149.276H76.5177V147.871Z" fill="#F2ECEB"/>
<path d="M121.104 147.871H109.673V149.276H121.104V147.871Z" fill="#F2ECEB"/>
<path d="M108.269 147.871H99.0539V149.276H108.269V147.871Z" fill="#7298E4"/>
<path d="M97.4963 147.871H92.437V149.276H97.4963V147.871Z" fill="#7298E4"/>
<path d="M138.939 106.223H49.9879V112.732H138.939V106.223Z" fill="#64B85A"/>
<path d="M58.6852 125.797H57.3434V127.201H58.6852V125.797Z" fill="#231F20"/>
<path d="M65.7253 125.797H59.9229V127.201H65.7253V125.797Z" fill="#F2ECEB"/>
<path d="M81.1017 125.797H73.2938V127.201H81.1017V125.797Z" fill="#F2ECEB"/>
<path d="M72.2079 125.797H66.8734V127.201H72.2079V125.797Z" fill="#F2ECEB"/>
<path d="M53.3471 154.25H52.0053V155.654H53.3471V154.25Z" fill="#231F20"/>
<path d="M58.4887 154.25H54.5847V155.654H58.4887V154.25Z" fill="#F2ECEB"/>
<path d="M84.7936 154.25H74.7508V155.654H84.7936V154.25Z" fill="#F2ECEB"/>
<path d="M73.451 154.25H70.8468V155.654H73.451V154.25Z" fill="#F2ECEB"/>
<path d="M69.2235 154.25H59.8726V155.654H69.2235V154.25Z" fill="#F2ECEB"/>
<path d="M107.481 154.25H97.276V155.654H107.481V154.25Z" fill="#7298E4"/>
<path d="M90.2012 154.25H86.0139V155.654H90.2012V154.25Z" fill="#7298E4"/>
<path d="M95.8775 154.25H91.6902V155.654H95.8775V154.25Z" fill="#7298E4"/>
<path d="M53.3471 160.59H52.0053V161.994H53.3471V160.59Z" fill="#231F20"/>
<path d="M62.3927 160.59H54.5847V161.994H62.3927V160.59Z" fill="#F2ECEB"/>
<path d="M87.9636 160.59H80.1556V161.994H87.9636V160.59Z" fill="#7298E4"/>
<path d="M78.6547 160.59H70.8468V161.994H78.6547V160.59Z" fill="#7298E4"/>
<path d="M69.2235 160.59H64.3424V161.994H69.2235V160.59Z" fill="#7298E4"/>
<path d="M135.498 160.59H130.617V161.994H135.498V160.59Z" fill="#F2ECEB"/>
<path d="M128.906 160.59H115.959V161.994H128.906V160.59Z" fill="#F2ECEB"/>
<path d="M113.47 160.59H100.523V161.994H113.47V160.59Z" fill="#F2ECEB"/>
<path d="M97.8309 160.59H89.7368V161.994H97.8309V160.59Z" fill="#F2ECEB"/>
<path d="M53.3471 157.504H52.0053V158.908H53.3471V157.504Z" fill="#231F20"/>
<path d="M60.3872 157.504H54.5847V158.908H60.3872V157.504Z" fill="#F2ECEB"/>
<path d="M75.7636 157.504H67.9557V158.908H75.7636V157.504Z" fill="#F2ECEB"/>
<path d="M66.8698 157.504H61.5353V158.908H66.8698V157.504Z" fill="#F2ECEB"/>
<path d="M53.3471 143.801H52.0053V145.205H53.3471V143.801Z" fill="#231F20"/>
<path d="M62.3927 143.801H54.5847V145.205H62.3927V143.801Z" fill="#7298E4"/>
<path d="M78.6547 143.801H70.8468V145.205H78.6547V143.801Z" fill="#F2ECEB"/>
<path d="M69.2235 143.801H64.3424V145.205H69.2235V143.801Z" fill="#F2ECEB"/>
<path d="M117.411 49.9297H39V94.5417H117.411V49.9297Z" fill="#231F20"/>
<path d="M41.9607 51.6836H40.7779V52.9215H41.9607V51.6836Z" fill="#F2ECEB"/>
<path d="M45.7065 51.6836H43.052V52.9215H45.7065V51.6836Z" fill="#F2ECEB"/>
<path d="M50.9742 51.6836H47.0657V52.9215H50.9742V51.6836Z" fill="#F2ECEB"/>
<path d="M72.4766 51.6836H68.2491V52.9215H72.4766V51.6836Z" fill="#F2ECEB"/>
<path d="M62.8735 51.6836H55.2036V52.9215H62.8735V51.6836Z" fill="#F2ECEB"/>
<path d="M54.3434 51.6836H51.6534V52.9215H54.3434V51.6836Z" fill="#F2ECEB"/>
<path d="M66.9611 51.6836H64.2711V52.9215H66.9611V51.6836Z" fill="#F2ECEB"/>
<path d="M94.9607 51.6836H93.1573V52.9215H94.9607V51.6836Z" fill="#F2ECEB"/>
<path d="M108.567 51.6836H96.1316V52.9215H108.567V51.6836Z" fill="#F2ECEB"/>
<path d="M91.9745 51.6836H85.0934V52.9215H91.9745V51.6836Z" fill="#F2ECEB"/>
<path d="M82.9069 51.6836H74.0387V52.9215H82.9069V51.6836Z" fill="#F2ECEB"/>
<path d="M41.9607 54.8672H40.7779V56.1051H41.9607V54.8672Z" fill="#D1C2BA"/>
<path d="M49.9349 54.8672H43.052V56.1051H49.9349V54.8672Z" fill="#D1C2BA"/>
<path d="M72.4766 54.8672H57.3873V56.1051H72.4766V54.8672Z" fill="#D1C2BA"/>
<path d="M55.9558 54.8672H51.6534V56.1051H55.9558V54.8672Z" fill="#D1C2BA"/>
<path d="M100.431 54.8672H74.0387V56.1051H100.431V54.8672Z" fill="#F2ECEB"/>
<path d="M41.9607 58.0859H40.7779V59.3239H41.9607V58.0859Z" fill="#D1C2BA"/>
<path d="M46.4935 58.0859H43.052V59.3239H46.4935V58.0859Z" fill="#F2ECEB"/>
<path d="M69.6823 58.0859H60.8287V59.3239H69.6823V58.0859Z" fill="#F2ECEB"/>
<path d="M59.6834 58.0859H57.3873V59.3239H59.6834V58.0859Z" fill="#F2ECEB"/>
<path d="M55.9558 58.0859H47.7128V59.3239H55.9558V58.0859Z" fill="#F2ECEB"/>
<path d="M89.6802 58.0859H80.6849V59.3239H89.6802V58.0859Z" fill="#7298E4"/>
<path d="M74.4483 58.0859H70.7573V59.3239H74.4483V58.0859Z" fill="#7298E4"/>
<path d="M79.4518 58.0859H75.7608V59.3239H79.4518V58.0859Z" fill="#7298E4"/>
<path d="M41.9607 64.8086H40.7779V66.0465H41.9607V64.8086Z" fill="#D1C2BA"/>
<path d="M49.9349 64.8086H43.052V66.0465H49.9349V64.8086Z" fill="#F2ECEB"/>
<path d="M72.4766 64.8086H65.5937V66.0465H72.4766V64.8086Z" fill="#7298E4"/>
<path d="M64.2702 64.8086H57.3873V66.0465H64.2702V64.8086Z" fill="#7298E4"/>
<path d="M55.9558 64.8086H51.6534V66.0465H55.9558V64.8086Z" fill="#7298E4"/>
<path d="M48.2668 83.5508H47.084V84.7887H48.2668V83.5508Z" fill="#F2ECEB"/>
<path d="M56.2401 83.5508H49.3572V84.7887H56.2401V83.5508Z" fill="#F2ECEB"/>
<path d="M78.7818 83.5508H71.8989V84.7887H78.7818V83.5508Z" fill="#7298E4"/>
<path d="M70.5754 83.5508H63.6925V84.7887H70.5754V83.5508Z" fill="#7298E4"/>
<path d="M62.261 83.5508H57.9586V84.7887H62.261V83.5508Z" fill="#7298E4"/>
<path d="M114.873 83.5508H103.46V84.7887H114.873V83.5508Z" fill="#F2ECEB"/>
<path d="M101.266 83.5508H89.8529V84.7887H101.266V83.5508Z" fill="#F2ECEB"/>
<path d="M87.4791 83.5508H80.3448V84.7887H87.4791V83.5508Z" fill="#F2ECEB"/>
<path d="M41.9607 67.9961H40.7779V69.234H41.9607V67.9961Z" fill="#D1C2BA"/>
<path d="M44.7732 67.9961H43.052V69.234H44.7732V67.9961Z" fill="#7298E4"/>
<path d="M69.4657 67.9961H62.5828V69.234H69.4657V67.9961Z" fill="#D1C2BA"/>
<path d="M61.4759 67.9961H51.7621V69.234H61.4759V67.9961Z" fill="#F2ECEB"/>
<path d="M50.3179 67.9961H46.0154V69.234H50.3179V67.9961Z" fill="#7298E4"/>
<path d="M41.9607 71.2148H40.7779V72.4528H41.9607V71.2148Z" fill="#D1C2BA"/>
<path d="M49.9349 71.2148H43.052V72.4528H49.9349V71.2148Z" fill="#F2ECEB"/>
<path d="M70.5434 71.2148H64.7729V72.4528H70.5434V71.2148Z" fill="#64B85A"/>
<path d="M59.0024 71.2148H55.2145V72.4528H59.0024V71.2148Z" fill="#F2ECEB"/>
<path d="M63.7729 71.2148H59.985V72.4528H63.7729V71.2148Z" fill="#64B85A"/>
<path d="M53.6798 71.2148H51.6534V72.4528H53.6798V71.2148Z" fill="#F2ECEB"/>
<path d="M114.379 71.2148H106.812V72.4528H114.379V71.2148Z" fill="#231F20"/>
<path d="M41.9607 74.3984H40.7779V75.6364H41.9607V74.3984Z" fill="#D1C2BA"/>
<path d="M49.9349 74.3984H43.052V75.6364H49.9349V74.3984Z" fill="#F2ECEB"/>
<path d="M73.3733 74.3984H57.3873V75.6364H73.3733V74.3984Z" fill="#F2ECEB"/>
<path d="M55.9558 74.3984H51.6534V75.6364H55.9558V74.3984Z" fill="#F2ECEB"/>
<path d="M48.3911 80.9062H47.2083V82.1442H48.3911V80.9062Z" fill="#F2ECEB"/>
<path d="M56.3653 80.9062H49.4825V82.1442H56.3653V80.9062Z" fill="#F2ECEB"/>
<path d="M75.4656 80.9062H72.0241V82.1442H75.4656V80.9062Z" fill="#7298E4"/>
<path d="M70.7006 80.9062H63.8177V82.1442H70.7006V80.9062Z" fill="#F2ECEB"/>
<path d="M62.3862 80.9062H58.0838V82.1442H62.3862V80.9062Z" fill="#F2ECEB"/>
<path d="M101.689 80.9062H91.6125V82.1442H101.689V80.9062Z" fill="#F2ECEB"/>
<path d="M90.3767 80.9062H82.2525V82.1442H90.3767V80.9062Z" fill="#7298E4"/>
<path d="M80.8796 80.9062H76.4199V82.1442H80.8796V80.9062Z" fill="#7298E4"/>
<path d="M117.411 44.1953H39V49.933H117.411V44.1953Z" fill="#7298E4"/>
<path d="M46.6671 61.4492H45.4843V62.6871H46.6671V61.4492Z" fill="#D1C2BA"/>
<path d="M52.8727 61.4492H47.7576V62.6871H52.8727V61.4492Z" fill="#F2ECEB"/>
<path d="M66.4274 61.4492H59.5445V62.6871H66.4274V61.4492Z" fill="#F2ECEB"/>
<path d="M58.5874 61.4492H53.8846V62.6871H58.5874V61.4492Z" fill="#F2ECEB"/>
<path d="M41.9607 86.5312H40.7779V87.7692H41.9607V86.5312Z" fill="#64B85A"/>
<path d="M46.4935 86.5312H43.052V87.7692H46.4935V86.5312Z" fill="#F2ECEB"/>
<path d="M69.6823 86.5312H60.8287V87.7692H69.6823V86.5312Z" fill="#F2ECEB"/>
<path d="M59.6834 86.5312H57.3873V87.7692H59.6834V86.5312Z" fill="#F2ECEB"/>
<path d="M55.9558 86.5312H47.7128V87.7692H55.9558V86.5312Z" fill="#F2ECEB"/>
<path d="M89.6802 86.5312H80.6849V87.7692H89.6802V86.5312Z" fill="#7298E4"/>
<path d="M74.4483 86.5312H70.7573V87.7692H74.4483V86.5312Z" fill="#7298E4"/>
<path d="M79.4518 86.5312H75.7608V87.7692H79.4518V86.5312Z" fill="#7298E4"/>
<path d="M41.9607 92.1211H40.7779V93.359H41.9607V92.1211Z" fill="#64B85A"/>
<path d="M49.9349 92.1211H43.052V93.359H49.9349V92.1211Z" fill="#F2ECEB"/>
<path d="M72.4766 92.1211H65.5937V93.359H72.4766V92.1211Z" fill="#7298E4"/>
<path d="M64.2702 92.1211H57.3873V93.359H64.2702V92.1211Z" fill="#7298E4"/>
<path d="M55.9558 92.1211H51.6534V93.359H55.9558V92.1211Z" fill="#7298E4"/>
<path d="M114.379 92.1211H110.077V93.359H114.379V92.1211Z" fill="#F2ECEB"/>
<path d="M108.567 92.1211H97.1544V93.359H108.567V92.1211Z" fill="#F2ECEB"/>
<path d="M94.9607 92.1211H83.5477V93.359H94.9607V92.1211Z" fill="#F2ECEB"/>
<path d="M81.173 92.1211H74.0387V93.359H81.173V92.1211Z" fill="#F2ECEB"/>
<path d="M41.9607 89.3984H40.7779V90.6364H41.9607V89.3984Z" fill="#64B85A"/>
<path d="M48.1671 89.3984H43.052V90.6364H48.1671V89.3984Z" fill="#F2ECEB"/>
<path d="M61.7218 89.3984H54.8389V90.6364H61.7218V89.3984Z" fill="#F2ECEB"/>
<path d="M53.8818 89.3984H49.179V90.6364H53.8818V89.3984Z" fill="#F2ECEB"/>
<path d="M41.9607 77.3203H40.7779V78.5582H41.9607V77.3203Z" fill="#D1C2BA"/>
<path d="M49.9349 77.3203H43.052V78.5582H49.9349V77.3203Z" fill="#7298E4"/>
<path d="M64.2702 77.3203H57.3873V78.5582H64.2702V77.3203Z" fill="#F2ECEB"/>
<path d="M55.9558 77.3203H51.6534V78.5582H55.9558V77.3203Z" fill="#F2ECEB"/>
<path d="M153.009 166.277L155.398 174.619L167.691 173.99L165.534 165.191L153.009 166.277Z" fill="#F7A88F"/>
<path d="M127.36 117.922L148.526 167.574H170.71L156.481 133.503L127.36 117.922Z" fill="#EAD8CA"/>
<path d="M170.238 176.432L168.296 172.256C167.706 170.989 166.986 169.602 165.664 169.154C164.437 168.739 163.033 169.33 162.191 170.321C161.349 171.311 160.997 172.621 160.837 173.908C158.613 172.225 156.042 171.06 153.311 170.497C153.025 170.439 152.7 170.396 152.464 170.568C152.328 170.678 152.234 170.831 152.196 171.001C151.963 171.852 152.605 172.671 153.201 173.322L148.033 177.5C134.836 176.86 133.443 180.19 134.695 184.411H172.438C174.541 181.599 172.757 178.952 170.238 176.432Z" fill="#7298E4"/>
<path d="M134.692 184.414L134.647 184.45C132.836 185.864 133.854 188.778 136.152 188.778H170.978C173.263 188.778 174.284 185.902 172.506 184.468L172.438 184.414H134.692Z" fill="#F2ECEB"/>
<path d="M148.407 159.425C148.383 159.426 148.359 159.42 148.338 159.409C148.316 159.399 148.298 159.383 148.283 159.364L140.159 148.429C140.146 148.413 140.135 148.395 140.129 148.375C140.123 148.355 140.121 148.333 140.123 148.312C140.126 148.291 140.132 148.271 140.143 148.253C140.153 148.235 140.167 148.219 140.184 148.206C140.201 148.194 140.22 148.185 140.241 148.18C140.261 148.175 140.283 148.174 140.303 148.178C140.324 148.182 140.344 148.19 140.361 148.202C140.379 148.214 140.394 148.229 140.405 148.246L148.529 159.18C148.554 159.213 148.564 159.254 148.558 159.294C148.552 159.334 148.531 159.371 148.498 159.395C148.472 159.415 148.44 159.425 148.407 159.425V159.425Z" fill="#161414"/>
<path d="M159.852 137.339L127.36 117.919C125.612 105.872 132.596 100.967 145.474 104.712C158.152 110.762 175.627 118.48 183.59 123.787L159.852 137.339Z" fill="#EAD8CA"/>
<path d="M157.495 136.086C157.468 136.087 157.441 136.079 157.417 136.065L144.323 128.235C144.288 128.214 144.262 128.18 144.252 128.141C144.242 128.101 144.248 128.059 144.269 128.024C144.29 127.989 144.324 127.964 144.364 127.954C144.403 127.944 144.445 127.95 144.48 127.971L157.574 135.797C157.603 135.815 157.625 135.841 157.637 135.872C157.65 135.903 157.652 135.938 157.643 135.97C157.634 136.002 157.615 136.031 157.588 136.051C157.561 136.072 157.529 136.083 157.495 136.083V136.086Z" fill="#161414"/>
<path d="M153.64 74.8232C153.984 74.4543 154.18 73.9704 154.188 73.4655C154.237 72.4892 154.216 72.9696 154.286 71.9942C154.577 68.0151 157.142 64.112 161.343 63.6444C162.774 63.4852 164.225 63.692 165.623 64.0351C166.251 64.1737 166.861 64.3831 167.441 64.6591C168.399 65.1431 169.191 65.9153 169.811 66.7909C170.978 68.4378 171.73 70.4873 171.524 72.5267C171.319 74.5662 169.992 76.4217 168.533 77.7959C167.418 78.8439 166.172 79.7423 164.825 80.4685C163.795 81.0229 162.695 81.4749 161.638 81.9946C160.541 82.5326 159.416 83.0358 158.227 83.3286C157.626 83.4759 156.965 83.454 156.419 83.163C155.485 82.6662 155.098 81.5472 154.84 80.5197C154.535 79.3019 154.298 78.0678 154.132 76.8233C154.132 76.8233 151.288 76.9267 153.64 74.8232Z" fill="#F7A88F"/>
<path d="M159.677 80.7777C160.304 83.3103 161.09 85.6818 162.237 87.6865L171.895 84.2326C170.654 82.5051 169.519 79.9003 168.422 76.9258L159.677 80.7777Z" fill="#F7A88F"/>
<path d="M156.037 73.9491C156.037 74.2693 155.878 74.5301 155.682 74.5301C155.485 74.5301 155.327 74.2693 155.327 73.9491C155.327 73.6289 155.486 73.3672 155.682 73.3672C155.877 73.3672 156.037 73.6279 156.037 73.9491Z" fill="#231F20"/>
<path d="M155.506 78.6354C155.364 78.6351 155.222 78.6172 155.083 78.5823C155.044 78.5724 155.01 78.5471 154.989 78.5121C154.968 78.4771 154.962 78.4352 154.972 78.3957C154.982 78.3561 155.007 78.3221 155.042 78.3012C155.077 78.2803 155.119 78.2741 155.158 78.2841C155.829 78.4533 156.447 78.1441 157.047 77.3398C157.058 77.3215 157.073 77.3057 157.091 77.2934C157.108 77.2811 157.128 77.2726 157.149 77.2685C157.17 77.2644 157.192 77.2647 157.213 77.2695C157.234 77.2742 157.254 77.2833 157.271 77.2961C157.288 77.309 157.302 77.3253 157.313 77.3439C157.323 77.3626 157.33 77.3833 157.332 77.4047C157.334 77.426 157.331 77.4476 157.325 77.4679C157.318 77.4883 157.307 77.507 157.292 77.5228C156.741 78.263 156.142 78.6354 155.506 78.6354Z" fill="#161414"/>
<path d="M154.431 72.5824C154.572 72.7233 154.823 72.7361 155.047 72.7233C155.482 72.6987 155.912 72.6184 156.327 72.4845C156.552 72.4122 156.784 72.317 156.933 72.1533C157.082 71.9895 157.134 71.7397 156.985 71.5952C156.895 71.5229 156.788 71.4748 156.674 71.4552C156.417 71.3916 156.157 71.3476 155.894 71.3234C155.578 71.2828 155.257 71.3084 154.951 71.3984C154.431 71.5723 154.041 72.1899 154.431 72.5824Z" fill="#231F20"/>
<path d="M159.002 74.1628C158.453 74.2213 157.951 73.7492 157.792 73.2167C157.61 72.6138 157.785 71.9733 157.824 71.363C157.872 70.6219 157.926 69.8808 157.976 69.1397C157.03 69.3266 156.068 69.4167 155.104 69.4087C154.576 69.4087 154.039 69.3675 153.543 69.1873C153.354 69.1283 153.182 69.0218 153.046 68.878C152.979 68.8054 152.933 68.7161 152.912 68.6195C152.892 68.5229 152.898 68.4225 152.93 68.3291C152.982 68.2236 153.058 68.1314 153.151 68.0591C153.445 67.799 153.768 67.5731 154.113 67.3857C153.732 67.4635 153.232 67.4864 153.065 67.135C152.913 66.8148 153.181 66.4552 153.458 66.2347C153.816 65.9616 154.202 65.7255 154.608 65.5302C156.749 64.4442 159.157 63.6143 161.492 63.0599C163.726 62.5246 166.998 62.2822 168.588 64.295C168.67 64.418 168.774 64.5244 168.895 64.6089C168.992 64.6576 169.095 64.6933 169.201 64.715C171.33 65.2896 172.348 68.0591 172.412 70.0455C172.503 72.7446 171.07 74.86 169.937 77.1629C169.694 77.6542 169.45 78.1519 169.338 78.6881L169.948 80.7193C168.99 80.4283 168.313 79.8162 167.953 78.8464C166.469 79.0294 165.119 78.958 164.702 77.108L159.002 74.1628Z" fill="#B8833B"/>
<path d="M199.533 97.207C201.989 99.9789 204.191 102.965 206.114 106.131C206.759 107.192 207.377 108.282 207.764 109.462C208.575 111.932 207.194 113.922 204.677 114.517C203.155 114.877 201.505 114.535 200.177 113.707L189.839 104.219L199.533 97.207Z" fill="#F7A88F"/>
<path d="M138.114 108.087L135.913 109.922L118.814 88.4127L115.706 79.051C115.119 77.007 114.323 75.9484 113.468 75.1652C110.524 72.1285 104.801 70.7524 100.555 71.2666L103.366 72.3087C100.049 71.2574 101.829 71.8265 98.499 70.8192C98.1544 70.7149 97.7952 70.6097 97.4406 70.67C97.0859 70.7304 96.7413 71.0086 96.7322 71.3681C96.7385 71.5454 96.7932 71.7175 96.8903 71.8659C97.1737 72.3581 97.4479 72.66 97.9643 72.8979L101.781 74.3097C99.2339 73.4259 99.8976 73.8788 97.3501 72.865C97.0704 72.7543 96.7824 72.6408 96.4817 72.639C96.181 72.6372 95.8592 72.7735 95.7267 73.0443C95.6637 73.1848 95.643 73.3406 95.6673 73.4927C95.7185 73.8879 95.979 74.2319 96.298 74.4707C96.617 74.7095 96.9488 74.8019 97.319 74.9492L100.776 76.4598C98.223 75.3912 99.9533 76.2164 97.3802 75.188C96.9424 75.0124 96.4817 74.8349 96.0137 74.8925C95.8743 74.9023 95.7417 74.9565 95.6353 75.0471C95.5787 75.1118 95.5356 75.1871 95.5085 75.2686C95.4813 75.3502 95.4707 75.4363 95.4772 75.522C95.4772 76.006 95.7514 76.4598 96.117 76.7801C96.4826 77.1003 96.8071 77.2083 97.2605 77.3775C97.2605 77.3775 104.619 80.6796 104.756 81.0712C105.835 84.2447 107.231 87.3015 108.922 90.195C109.417 91.0414 109.984 91.9133 110.796 92.4312L126.873 119.836C129.433 125.24 133.049 127.668 139.113 123.257L148.961 113.34L138.114 108.087Z" fill="#F7A88F"/>
<path d="M183.59 143.923C201.332 141.872 198.922 130.694 192.681 117.465L165.787 125.542L183.59 143.923Z" fill="#EAD8CA"/>
<path d="M153.222 87.6875C148.37 88.7525 144.943 93.8552 142.379 98.2652L135.706 108.401L147.783 118.343L157.273 102.972L153.222 87.6875Z" fill="#64B85A"/>
<path d="M178.33 80.3886C182.756 78.6832 188.929 81.5543 192.681 87.0366L203.497 96.3197L190.491 106.25L178.33 80.3886Z" fill="#64B85A"/>
<path d="M197.392 121.253L166.271 126.037L165.787 125.537C164.416 124.124 162.496 122.622 160.141 121.054L151.767 88.1158L177.002 80.6261C178.411 80.208 179.923 80.3147 181.259 80.9262C182.594 81.5378 183.664 82.613 184.269 83.9528C188.262 92.7821 193.683 108.338 197.392 121.253Z" fill="#64B85A"/>
<path d="M164.774 77.041C166.656 75.8768 167.238 73.4061 166.075 71.5226C164.912 69.6391 162.444 69.056 160.562 70.2202C158.681 71.3844 158.098 73.855 159.261 75.7385C160.424 77.6221 162.892 78.2052 164.774 77.041Z" fill="#F7A88F"/>
<path d="M165.564 73.7968C165.523 73.7968 165.484 73.7806 165.455 73.7517C165.426 73.7229 165.41 73.6838 165.41 73.643C165.41 72.9151 165.121 72.2169 164.607 71.7022C164.093 71.1874 163.395 70.8982 162.668 70.8982C161.941 70.8982 161.243 71.1874 160.729 71.7022C160.215 72.2169 159.926 72.9151 159.926 73.643C159.926 73.6838 159.91 73.7229 159.881 73.7517C159.852 73.7806 159.813 73.7968 159.772 73.7968C159.732 73.7968 159.692 73.7806 159.664 73.7517C159.635 73.7229 159.619 73.6838 159.619 73.643C159.633 72.8431 159.96 72.0805 160.53 71.5197C161.1 70.9588 161.867 70.6445 162.667 70.6445C163.466 70.6445 164.233 70.9588 164.803 71.5197C165.374 72.0805 165.701 72.8431 165.715 73.643C165.715 73.6833 165.699 73.722 165.671 73.7508C165.642 73.7795 165.604 73.796 165.564 73.7968V73.7968Z" fill="#161414"/>
<path d="M104.752 78.351C104.732 78.3511 104.713 78.3471 104.695 78.3391L98.2093 75.6858C98.1895 75.679 98.1713 75.6682 98.1558 75.6541C98.1403 75.6399 98.1279 75.6228 98.1193 75.6037C98.1106 75.5846 98.106 75.5639 98.1057 75.5429C98.1053 75.522 98.1093 75.5012 98.1173 75.4818C98.1253 75.4624 98.1371 75.4448 98.1522 75.4302C98.1672 75.4156 98.185 75.4042 98.2046 75.3968C98.2242 75.3893 98.2451 75.3859 98.266 75.3869C98.2869 75.3878 98.3074 75.393 98.3263 75.4022L104.811 78.0555C104.843 78.0696 104.87 78.0943 104.886 78.1255C104.902 78.1568 104.908 78.1927 104.901 78.2273C104.894 78.2619 104.875 78.2932 104.848 78.3159C104.821 78.3385 104.787 78.3513 104.752 78.3519V78.351Z" fill="#161414"/>
<path d="M107.302 76.501C107.286 76.501 107.269 76.4982 107.253 76.4928L98.8153 73.6107C98.7963 73.6042 98.7787 73.5941 98.7636 73.5808C98.7485 73.5675 98.7362 73.5514 98.7273 73.5333C98.7185 73.5153 98.7132 73.4956 98.7119 73.4756C98.7106 73.4555 98.7133 73.4353 98.7198 73.4163C98.7263 73.3973 98.7364 73.3797 98.7497 73.3646C98.763 73.3495 98.7791 73.3371 98.7971 73.3282C98.8152 73.3193 98.8348 73.3141 98.8548 73.3128C98.8749 73.3115 98.895 73.3142 98.914 73.3207L107.352 76.2018C107.386 76.2136 107.415 76.2372 107.434 76.2684C107.453 76.2996 107.46 76.3365 107.454 76.3724C107.448 76.4083 107.429 76.4409 107.402 76.4645C107.374 76.488 107.339 76.501 107.302 76.501V76.501Z" fill="#161414"/>
<path d="M108.471 74.06C108.455 74.0599 108.439 74.0571 108.423 74.0517L100.507 71.4158C100.487 71.4105 100.468 71.4011 100.451 71.3882C100.435 71.3752 100.421 71.3589 100.411 71.3404C100.401 71.3219 100.395 71.3015 100.393 71.2805C100.391 71.2595 100.393 71.2384 100.4 71.2184C100.407 71.1984 100.417 71.18 100.431 71.1643C100.445 71.1486 100.463 71.136 100.482 71.1272C100.501 71.1184 100.522 71.1137 100.543 71.1133C100.564 71.1129 100.585 71.1168 100.604 71.1249L108.52 73.7644C108.555 73.7757 108.585 73.7991 108.604 73.8304C108.623 73.8618 108.631 73.899 108.625 73.9354C108.619 73.9717 108.6 74.0047 108.572 74.0284C108.544 74.0521 108.508 74.0649 108.471 74.0645V74.06Z" fill="#161414"/>
<path d="M182.756 123.506L195.905 125.309L194.517 121.594L182.756 123.506Z" fill="#231F20"/>
<path d="M155.876 105.073C155.848 105.073 155.821 105.066 155.797 105.052C155.773 105.038 155.754 105.017 155.741 104.993C155.728 104.969 155.721 104.941 155.723 104.914C155.724 104.886 155.732 104.859 155.748 104.836L158.673 100.362C158.683 100.345 158.698 100.329 158.714 100.318C158.731 100.306 158.75 100.297 158.77 100.293C158.79 100.288 158.811 100.288 158.831 100.292C158.851 100.295 158.87 100.303 158.887 100.314C158.905 100.325 158.919 100.34 158.931 100.357C158.942 100.374 158.95 100.393 158.954 100.413C158.958 100.434 158.958 100.454 158.954 100.474C158.949 100.494 158.941 100.513 158.93 100.53L156.005 105.004C155.991 105.025 155.972 105.043 155.949 105.055C155.926 105.067 155.901 105.073 155.876 105.073V105.073Z" fill="#161414"/>
<path d="M192.205 105.096C192.171 105.096 192.139 105.084 192.112 105.064C192.085 105.043 192.066 105.015 192.057 104.982L188.014 90.1061C188.008 90.0863 188.006 90.0655 188.008 90.0449C188.01 90.0243 188.016 90.0044 188.026 89.9862C188.036 89.9681 188.049 89.9521 188.065 89.9393C188.082 89.9265 188.1 89.917 188.12 89.9116C188.14 89.9062 188.161 89.9049 188.182 89.9077C188.202 89.9105 188.222 89.9175 188.239 89.9281C188.257 89.9388 188.273 89.9529 188.285 89.9696C188.297 89.9864 188.306 90.0054 188.31 90.0256L192.353 104.903C192.359 104.925 192.36 104.949 192.356 104.972C192.351 104.996 192.341 105.017 192.327 105.036C192.313 105.055 192.294 105.07 192.273 105.081C192.252 105.091 192.229 105.097 192.205 105.097V105.096Z" fill="#161414"/>
<path d="M160.185 82.6628L163.046 81.0781L160.598 83.9611L160.185 82.6628Z" fill="#E5766A"/>
<path d="M160.781 75.2279C160.741 75.2279 160.702 75.2117 160.673 75.1829C160.644 75.1541 160.628 75.115 160.628 75.0742V71.4428C160.628 71.402 160.644 71.3629 160.673 71.3341C160.702 71.3053 160.741 71.2891 160.781 71.2891C160.822 71.2891 160.861 71.3053 160.89 71.3341C160.919 71.3629 160.935 71.402 160.935 71.4428V75.076C160.934 75.1165 160.918 75.1551 160.889 75.1835C160.861 75.212 160.822 75.2279 160.781 75.2279V75.2279Z" fill="#161414"/>
<path d="M183.59 144.076C183.551 144.077 183.512 144.062 183.484 144.034C183.455 144.006 183.437 143.967 183.436 143.927C183.435 143.886 183.45 143.846 183.478 143.817L186.749 140.387C186.762 140.371 186.779 140.358 186.798 140.349C186.817 140.339 186.837 140.334 186.858 140.332C186.879 140.331 186.9 140.334 186.92 140.341C186.939 140.349 186.958 140.36 186.973 140.374C186.988 140.389 187 140.406 187.008 140.426C187.017 140.445 187.021 140.466 187.021 140.487C187.02 140.508 187.016 140.529 187.007 140.548C186.999 140.567 186.987 140.584 186.971 140.599L183.701 144.029C183.686 144.044 183.669 144.056 183.65 144.064C183.631 144.072 183.611 144.077 183.59 144.076V144.076Z" fill="#161414"/>
<path d="M134.185 165.286L136.573 174.393L148.867 173.705L146.71 164.102L134.185 165.286Z" fill="#F7A88F"/>
<path d="M108.536 116.828L129.702 166.482H151.886L137.657 132.41L108.536 116.828Z" fill="#EAD8CA"/>
<path d="M151.415 176.373C150.767 174.854 150.119 173.334 149.472 171.815C148.883 170.432 148.162 168.916 146.84 168.43C145.613 167.972 144.209 168.622 143.372 169.702C142.536 170.783 142.177 172.215 142.018 173.619C139.836 171.803 137.258 170.527 134.491 169.895C134.205 169.832 133.881 169.786 133.645 169.973C133.507 170.098 133.412 170.264 133.376 170.446C133.145 171.376 133.786 172.27 134.381 172.979L129.203 177.539C116.007 176.841 114.613 180.477 115.866 185.084H153.609C155.719 182.014 153.932 179.125 151.415 176.373Z" fill="#7298E4"/>
<path d="M153.609 185.245C153.58 185.244 153.551 185.236 153.526 185.221C153.501 185.206 153.481 185.185 153.467 185.159C153.453 185.133 153.447 185.104 153.449 185.075C153.45 185.045 153.46 185.017 153.476 184.993C154.421 183.621 154.623 182.201 154.093 180.661C153.674 179.437 152.783 178.11 151.293 176.481C151.277 176.466 151.265 176.448 151.256 176.427C151.247 176.407 151.243 176.385 151.243 176.363C151.243 176.341 151.248 176.319 151.257 176.299C151.266 176.278 151.279 176.26 151.295 176.245C151.312 176.23 151.331 176.219 151.352 176.212C151.373 176.205 151.395 176.202 151.417 176.204C151.439 176.205 151.46 176.212 151.48 176.222C151.499 176.233 151.516 176.247 151.53 176.264C153.883 178.835 155.986 181.905 153.74 185.174C153.726 185.196 153.706 185.213 153.683 185.226C153.66 185.238 153.635 185.244 153.609 185.245V185.245Z" fill="#161414"/>
<path d="M115.869 185.082L115.823 185.12C114.012 186.665 115.03 189.846 117.328 189.846H152.154C154.439 189.846 155.459 186.706 153.681 185.141L153.614 185.082H115.869Z" fill="#F2ECEB"/>
<path d="M129.583 158.337C129.559 158.337 129.535 158.332 129.514 158.321C129.492 158.31 129.474 158.295 129.459 158.276L121.335 147.342C121.314 147.309 121.306 147.27 121.313 147.232C121.32 147.193 121.341 147.159 121.373 147.136C121.404 147.113 121.443 147.102 121.481 147.106C121.52 147.111 121.556 147.13 121.581 147.159L129.705 158.093C129.729 158.125 129.74 158.166 129.734 158.207C129.728 158.247 129.707 158.283 129.674 158.308C129.648 158.327 129.615 158.338 129.583 158.337V158.337Z" fill="#161414"/>
<path d="M183.59 143.923C175.842 149.851 162.328 148.179 141.028 136.252L108.535 116.831C106.789 104.784 113.772 99.8842 126.652 103.625C139.33 109.674 152.181 115.751 160.141 121.058C162.493 122.627 174.126 128.286 174.126 128.286L183.59 143.923Z" fill="#EAD8CA"/>
<path d="M160.141 121.21C160.111 121.21 160.083 121.202 160.058 121.186L149.894 114.745C149.877 114.734 149.862 114.72 149.851 114.703C149.839 114.687 149.831 114.668 149.826 114.648C149.822 114.629 149.821 114.608 149.825 114.588C149.828 114.569 149.836 114.549 149.846 114.532C149.857 114.515 149.871 114.501 149.888 114.489C149.904 114.477 149.923 114.469 149.943 114.465C149.962 114.46 149.983 114.46 150.003 114.463C150.022 114.467 150.041 114.474 150.059 114.485L160.223 120.926C160.24 120.937 160.255 120.951 160.266 120.967C160.278 120.984 160.286 121.003 160.291 121.022C160.295 121.042 160.295 121.062 160.292 121.082C160.289 121.102 160.281 121.121 160.27 121.138C160.257 121.16 160.238 121.178 160.215 121.191C160.192 121.203 160.167 121.21 160.141 121.21V121.21Z" fill="#161414"/>
<path d="M151.886 166.636C151.856 166.637 151.826 166.628 151.801 166.612C151.776 166.596 151.756 166.572 151.744 166.545L138.527 134.901C138.514 134.872 138.512 134.839 138.519 134.807C138.527 134.776 138.544 134.748 138.568 134.727C138.592 134.704 138.624 134.691 138.657 134.688C138.69 134.685 138.723 134.693 138.751 134.711L141.107 136.119C147.888 139.916 154.063 142.764 159.456 144.579C159.476 144.584 159.495 144.594 159.511 144.607C159.527 144.62 159.541 144.636 159.55 144.655C159.56 144.673 159.566 144.694 159.568 144.714C159.57 144.735 159.567 144.756 159.56 144.776C159.554 144.796 159.543 144.814 159.529 144.829C159.515 144.845 159.498 144.858 159.479 144.866C159.46 144.875 159.44 144.88 159.419 144.881C159.398 144.881 159.377 144.877 159.358 144.87C153.947 143.048 147.755 140.193 140.954 136.384L138.994 135.213L152.028 166.424C152.036 166.443 152.04 166.463 152.04 166.483C152.04 166.503 152.036 166.523 152.029 166.541C152.021 166.56 152.01 166.577 151.996 166.591C151.981 166.605 151.965 166.617 151.946 166.624C151.927 166.633 151.906 166.637 151.886 166.636V166.636Z" fill="#161414"/>
<path d="M138.671 134.996C138.643 134.996 138.616 134.989 138.593 134.975L125.499 127.148C125.466 127.126 125.443 127.093 125.435 127.054C125.426 127.016 125.433 126.976 125.453 126.942C125.473 126.908 125.505 126.884 125.543 126.873C125.581 126.862 125.621 126.866 125.656 126.885L138.75 134.711C138.767 134.721 138.782 134.735 138.794 134.751C138.806 134.767 138.815 134.786 138.82 134.805C138.825 134.825 138.826 134.845 138.823 134.865C138.82 134.885 138.813 134.904 138.803 134.921C138.789 134.944 138.77 134.963 138.747 134.976C138.724 134.989 138.698 134.996 138.671 134.996V134.996Z" fill="#161414"/>
<path d="M167.691 152.114L177.572 114.291C177.789 113.459 178.276 112.723 178.955 112.197C179.635 111.672 180.47 111.387 181.329 111.387H203.135C203.719 111.387 204.294 111.518 204.819 111.771C205.345 112.025 205.807 112.393 206.17 112.849C206.534 113.305 206.791 113.837 206.921 114.406C207.051 114.975 207.052 115.566 206.922 116.135L198.433 153.543L167.691 152.114Z" fill="#231F20"/>
<path d="M179.507 183.574C179.466 183.574 179.427 183.558 179.398 183.529C179.369 183.5 179.353 183.461 179.353 183.42V157.216C179.353 157.175 179.369 157.136 179.398 157.108C179.427 157.079 179.466 157.062 179.507 157.062C179.548 157.062 179.587 157.079 179.615 157.108C179.644 157.136 179.66 157.175 179.66 157.216V183.42C179.66 183.461 179.644 183.5 179.615 183.529C179.587 183.558 179.548 183.574 179.507 183.574V183.574Z" fill="#161414"/>
<path d="M192.88 183.573H166.719C166.678 183.573 166.639 183.557 166.611 183.528C166.582 183.499 166.566 183.46 166.566 183.419C166.566 183.379 166.582 183.339 166.611 183.311C166.639 183.282 166.678 183.266 166.719 183.266H192.88C192.92 183.266 192.959 183.282 192.988 183.311C193.017 183.339 193.033 183.379 193.033 183.419C193.033 183.46 193.017 183.499 192.988 183.528C192.959 183.557 192.92 183.573 192.88 183.573V183.573Z" fill="#161414"/>
<path d="M166.959 190.001C166.292 190.008 165.638 189.816 165.08 189.45C164.522 189.084 164.086 188.56 163.826 187.946C163.566 187.331 163.495 186.652 163.621 185.997C163.747 185.341 164.065 184.738 164.534 184.264C165.003 183.789 165.603 183.465 166.256 183.333C166.91 183.2 167.588 183.265 168.205 183.519C168.822 183.773 169.349 184.205 169.72 184.759C170.092 185.314 170.29 185.967 170.289 186.634C170.293 187.522 169.944 188.376 169.319 189.007C168.695 189.638 167.846 189.996 166.959 190.001V190.001ZM166.959 183.574C166.353 183.567 165.758 183.741 165.251 184.073C164.744 184.405 164.346 184.881 164.11 185.439C163.873 185.998 163.808 186.614 163.922 187.21C164.036 187.806 164.325 188.355 164.751 188.786C165.177 189.217 165.722 189.512 166.316 189.633C166.91 189.754 167.526 189.695 168.087 189.465C168.648 189.234 169.127 188.842 169.465 188.338C169.802 187.834 169.982 187.241 169.982 186.634C169.986 185.827 169.67 185.052 169.103 184.478C168.536 183.904 167.765 183.579 166.959 183.574V183.574Z" fill="#161414"/>
<path d="M179.507 190.001C178.84 190.008 178.186 189.816 177.628 189.45C177.071 189.084 176.634 188.56 176.374 187.946C176.114 187.331 176.043 186.652 176.169 185.997C176.295 185.341 176.613 184.738 177.082 184.264C177.552 183.789 178.151 183.465 178.805 183.333C179.458 183.2 180.137 183.265 180.753 183.519C181.37 183.773 181.898 184.205 182.269 184.759C182.64 185.314 182.838 185.967 182.838 186.634C182.841 187.522 182.492 188.376 181.868 189.007C181.243 189.638 180.394 189.996 179.507 190.001V190.001ZM179.507 183.574C178.901 183.567 178.306 183.741 177.799 184.073C177.292 184.405 176.895 184.881 176.658 185.439C176.421 185.998 176.356 186.614 176.47 187.21C176.584 187.806 176.873 188.355 177.299 188.786C177.725 189.217 178.27 189.512 178.864 189.633C179.458 189.754 180.075 189.695 180.635 189.465C181.196 189.234 181.675 188.842 182.013 188.338C182.35 187.834 182.531 187.241 182.531 186.634C182.534 185.827 182.218 185.052 181.651 184.478C181.084 183.904 180.313 183.579 179.507 183.574V183.574Z" fill="#161414"/>
<path d="M192.88 190.001C192.213 190.008 191.559 189.816 191.001 189.45C190.443 189.084 190.007 188.56 189.747 187.946C189.487 187.331 189.416 186.652 189.542 185.997C189.668 185.341 189.986 184.738 190.455 184.264C190.924 183.789 191.524 183.465 192.177 183.333C192.831 183.2 193.509 183.265 194.126 183.519C194.743 183.773 195.27 184.205 195.641 184.759C196.013 185.314 196.211 185.967 196.21 186.634C196.214 187.522 195.865 188.376 195.24 189.007C194.616 189.638 193.767 189.996 192.88 190.001V190.001ZM192.88 183.574C192.273 183.567 191.679 183.741 191.172 184.073C190.665 184.405 190.267 184.881 190.031 185.439C189.794 185.998 189.729 186.614 189.843 187.21C189.957 187.806 190.246 188.355 190.672 188.786C191.098 189.217 191.643 189.512 192.237 189.633C192.831 189.754 193.447 189.695 194.008 189.465C194.569 189.234 195.048 188.842 195.386 188.338C195.723 187.834 195.903 187.241 195.903 186.634C195.907 185.827 195.591 185.052 195.024 184.478C194.457 183.904 193.686 183.579 192.88 183.574V183.574Z" fill="#161414"/>
<path d="M161.397 149.014C160.025 150.04 159.062 151.499 158.746 153.549C158.546 154.864 159.148 160.686 161.228 160.686H196.054C198.339 160.686 199.359 151.719 197.582 147.254L197.56 147.197C197.546 147.164 197.524 147.136 197.495 147.117C197.465 147.097 197.431 147.087 197.396 147.087C191.906 147.087 186.416 147.087 180.926 147.087C176.012 147.089 166.188 145.435 161.397 149.014Z" fill="#231F20"/>
</g>
<defs>
<clipPath id="clip0_2115_12">
<rect width="169" height="165" fill="white" transform="translate(39 25)"/>
</clipPath>
</defs>
</svg>
